<svg id="svg" version="1.1" xmlns="http://www.w3.org/2000/svg" xmlns:xlink="http://www.w3.org/1999/xlink" width="400" height="372.7272727272727" viewBox="0, 0, 400,372.7272727272727"><g id="svgg"><path id="path0" d="M130.216 35.175 C 149.223 44.675,161.245 63.031,161.696 83.239 L 161.893 92.045 179.142 92.045 C 198.777 92.045,209.005 93.637,222.234 98.749 C 291.341 125.456,296.674 231.341,230.651 265.837 C 213.701 274.693,209.814 275.319,168.466 275.853 L 131.818 276.327 131.800 296.402 L 131.783 316.477 120.217 326.136 L 108.651 335.795 114.837 336.158 C 138.591 337.551,212.382 335.476,222.953 333.118 C 307.939 314.159,358.290 241.890,344.996 157.951 C 335.724 99.415,292.946 53.281,233.290 37.485 C 215.618 32.806,203.785 31.861,162.603 31.839 L 123.501 31.818 130.216 35.175 M85.227 36.728 C 41.393 49.423,32.753 106.323,71.648 126.165 L 76.136 128.455 76.175 220.762 L 76.215 313.068 88.247 323.123 C 102.214 334.794,100.122 334.850,114.667 322.417 L 125.000 313.584 125.000 299.974 L 125.000 286.364 119.835 286.364 C 115.866 286.364,114.023 285.718,111.880 283.574 C 105.074 276.768,109.820 267.045,119.950 267.045 L 125.000 267.045 125.000 257.386 L 125.000 247.727 120.971 247.727 C 112.372 247.727,108.225 237.810,114.150 231.416 C 116.155 229.253,118.069 228.409,120.968 228.409 L 125.000 228.409 125.000 220.455 L 125.000 212.500 120.971 212.500 C 115.483 212.500,111.364 208.358,111.364 202.841 C 111.364 197.324,115.483 193.182,120.971 193.182 L 125.000 193.182 125.000 181.955 L 125.000 170.728 131.945 170.225 C 147.492 169.101,147.290 152.111,131.725 151.795 L 125.568 151.669 125.244 140.677 L 124.919 129.685 131.495 125.219 C 165.901 101.855,162.522 57.493,125.000 39.945 C 115.134 35.331,95.526 33.745,85.227 36.728 M110.677 70.299 C 125.854 78.880,119.173 100.555,101.362 100.516 C 90.066 100.492,82.955 93.978,82.955 83.656 C 82.955 71.249,98.830 63.600,110.677 70.299 M96.591 231.250 C 96.591 268.438,96.300 298.864,95.943 298.864 C 95.587 298.864,93.030 297.305,90.262 295.400 L 85.227 291.936 85.227 227.786 L 85.227 163.636 90.909 163.636 L 96.591 163.636 96.591 231.250 " stroke="none" fill="#000000" fill-rule="evenodd"></path></g></svg>