<?xml version="1.0" standalone="no"?>
<!DOCTYPE svg PUBLIC "-//W3C//DTD SVG 20010904//EN"
 "http://www.w3.org/TR/2001/REC-SVG-20010904/DTD/svg10.dtd">
<svg version="1.0" xmlns="http://www.w3.org/2000/svg"
 width="297.000000pt" height="242.000000pt" viewBox="0 0 297.000000 242.000000"
 preserveAspectRatio="xMidYMid meet">

<g transform="translate(0.000000,242.000000) scale(0.100000,-0.100000)"
fill="#000000" stroke="none">
<path d="M0 1290 c0 -684 4 -1130 10 -1130 5 0 12 5 15 10 3 6 12 10 18 10 7
0 0 -8 -15 -18 -24 -14 -28 -23 -28 -64 0 -27 5 -48 10 -48 6 0 10 4 10 9 0 5
7 11 15 15 25 9 17 -10 -10 -24 -14 -7 -25 -22 -25 -32 0 -17 52 -18 1485 -18
l1485 0 0 1210 0 1210 -1485 0 -1485 0 0 -1130z m2250 823 c37 -21 65 -82 55
-120 -3 -15 -25 -45 -47 -66 -40 -38 -40 -40 -42 -110 -1 -60 -4 -72 -18 -75
-16 -3 -18 6 -18 76 0 77 -1 80 -25 86 -13 3 -36 19 -50 34 -31 33 -35 114 -7
148 37 46 101 57 152 27z m-512 -317 c42 -21 61 -48 66 -91 2 -22 5 -43 5 -46
1 -3 30 -21 66 -39 36 -18 65 -37 65 -41 0 -21 -26 -17 -85 14 -55 29 -66 32
-77 20 -16 -20 -63 -43 -88 -43 -38 0 -79 30 -101 72 -19 37 -20 45 -8 80 24
73 95 106 157 74z m1023 -9 c22 -14 39 -38 49 -64 13 -38 12 -46 -3 -78 -19
-39 -69 -75 -107 -75 -14 0 -40 9 -58 20 -42 26 -46 25 -117 -9 -33 -16 -63
-27 -67 -25 -19 12 -4 27 60 57 63 31 67 34 64 64 -4 42 21 89 61 113 42 26
76 25 118 -3z m-418 -154 c13 -21 39 -65 57 -98 18 -33 37 -66 43 -73 7 -9 -9
-44 -55 -125 l-65 -112 -131 -3 -131 -3 -60 108 c-65 115 -69 127 -47 158 7
11 24 40 38 65 14 25 35 62 48 83 l22 37 129 0 129 0 23 -37z m-919 -59 c50
-19 -38 -24 -455 -24 -506 0 -513 -1 -544 -60 -10 -20 -15 -49 -13 -83 3 -44
6 -52 23 -53 11 -1 242 -2 513 -3 317 -1 492 -5 492 -11 0 -6 -182 -11 -512
-12 l-513 -3 -3 -337 -2 -338 22 -1 23 -2 -23 -4 c-25 -5 -92 39 -92 60 0 7 5
4 11 -5 5 -10 14 -18 19 -18 6 0 10 148 10 385 0 331 2 390 16 425 17 43 54
75 94 83 38 7 916 8 934 1z m-864 -124 c0 -42 -53 -57 -66 -18 -9 28 20 52 47
37 11 -5 19 -14 19 -19z m124 11 c23 -25 11 -53 -23 -49 -29 3 -40 31 -21 53
16 19 23 19 44 -4z m144 -25 c-2 -15 -10 -21 -28 -21 -31 0 -40 33 -14 52 22
16 46 -1 42 -31z m1122 -110 c0 -8 -29 -29 -65 -48 l-65 -33 0 -43 c0 -37 -6
-50 -34 -78 -29 -29 -41 -34 -81 -34 -40 0 -52 5 -81 34 -26 26 -34 42 -34 70
0 103 90 156 180 105 l37 -21 59 30 c68 34 84 38 84 18z m585 -53 c40 -23 85
-31 85 -15 0 13 48 32 81 32 97 0 152 -113 91 -186 -72 -86 -192 -43 -211 76
-5 30 -14 39 -63 65 -67 36 -72 40 -64 54 8 12 25 6 81 -26z m-1449 -114 c55
-26 84 -74 84 -140 0 -28 -5 -60 -11 -72 -16 -31 -61 -77 -75 -77 -6 0 -16 -6
-22 -13 -9 -10 0 -17 43 -32 101 -34 172 -118 177 -210 2 -31 -1 -49 -9 -52
-9 -3 -13 6 -13 25 0 167 -207 276 -369 196 -62 -31 -117 -99 -126 -157 -9
-47 -31 -44 -27 4 9 82 81 162 177 194 30 11 55 22 55 27 0 4 -15 14 -32 23
-51 24 -83 78 -83 140 0 67 19 102 74 137 54 34 98 36 157 7z m1131 -92 l-6
-68 34 -20 c35 -21 65 -67 65 -101 0 -28 -26 -74 -56 -97 -43 -34 -99 -28
-140 13 -30 30 -34 41 -34 84 0 59 25 97 70 107 l30 7 0 77 c0 84 5 98 28 79
11 -10 13 -28 9 -81z m-1942 -237 c-3 -5 -14 -10 -23 -10 -15 0 -15 2 -2 10
20 13 33 13 25 0z m49 -29 c-2 -3 -12 3 -22 13 -16 17 -16 18 5 5 12 -7 20
-15 17 -18z m-130 -20 c-22 -17 -51 -39 -66 -50 -14 -12 -31 -21 -37 -21 -6 0
-11 -4 -11 -10 0 -5 -7 -10 -15 -10 -8 0 -15 -4 -15 -9 0 -5 -7 -12 -16 -15
-40 -15 -17 5 71 65 52 35 95 67 95 71 0 5 7 8 16 8 10 0 2 -11 -22 -29z m166
5 c0 -2 -7 -19 -16 -37 -11 -25 -14 -27 -10 -9 3 14 6 31 6 38 0 6 5 12 10 12
6 0 10 -2 10 -4z m232 -168 l38 -31 -43 -31 c-23 -17 -51 -39 -61 -48 -11 -10
-25 -18 -30 -17 -6 0 2 10 18 22 15 12 42 34 60 49 l31 27 -26 25 c-16 15 -42
26 -65 29 l-39 4 40 1 c32 1 48 -5 77 -30z m1478 -105 c0 -133 -12 -166 -72
-203 -32 -19 -52 -20 -766 -20 -724 0 -733 0 -774 21 -22 11 -43 17 -47 12 -9
-13 -54 -43 -65 -43 -5 0 30 29 79 65 49 36 94 65 100 65 10 -1 -15 -24 -51
-47 -19 -12 -18 -13 0 -28 17 -13 109 -15 758 -15 l737 0 36 31 35 31 0 124
c0 104 2 124 15 124 12 0 15 -20 15 -117z m-1610 -48 c-13 -14 -28 -25 -32
-25 -5 0 -16 -7 -25 -15 -8 -9 -18 -13 -22 -10 -3 4 1 10 9 15 8 5 30 20 49
34 44 33 51 33 21 1z m-98 -67 c-13 -15 -72 -51 -72 -44 0 5 71 56 79 56 2 0
-1 -6 -7 -12z m-83 -61 c-32 -27 -99 -66 -99 -58 0 5 8 12 18 15 9 3 30 17 46
31 16 14 32 23 34 20 3 -3 3 -7 1 -8z m-119 -82 c-7 -8 -20 -15 -28 -15 -13 0
-12 3 4 15 25 19 40 19 24 0z m157 2 c-10 -7 -28 -20 -39 -30 -12 -9 -24 -15
-27 -11 -3 3 1 9 9 14 8 5 24 16 35 24 11 8 25 15 30 15 6 0 2 -6 -8 -12z
m-207 -37 c-35 -24 -54 -31 -30 -11 14 11 30 21 35 21 6 0 3 -5 -5 -10z m114
-28 c-27 -24 -81 -62 -89 -62 -4 0 -2 7 5 15 7 8 17 15 22 15 5 0 21 11 36 25
15 14 31 25 36 25 6 0 1 -8 -10 -18z m-114 -82 c-8 -6 -24 -16 -35 -22 -20
-11 -20 -11 -1 11 11 11 26 21 35 21 14 0 14 -2 1 -10z"/>
<path d="M2136 2079 c-21 -16 -26 -29 -26 -64 0 -57 36 -90 90 -81 45 7 70 38
70 86 0 45 -35 80 -80 80 -15 0 -39 -9 -54 -21z"/>
<path d="M1631 1744 c-43 -55 -11 -134 55 -134 47 0 70 14 82 50 13 36 -1 86
-28 100 -36 20 -87 12 -109 -16z"/>
<path d="M2642 1747 c-30 -31 -30 -89 0 -117 31 -28 88 -27 116 3 30 32 30 93
0 118 -30 27 -89 25 -116 -4z"/>
<path d="M2051 1589 c-17 -28 -31 -52 -31 -55 0 -2 -12 -23 -26 -45 l-25 -41
56 -99 56 -99 109 0 108 0 24 38 c26 42 63 107 79 138 9 18 5 32 -25 85 -20
35 -44 79 -53 97 l-17 32 -111 0 -112 0 -32 -51z"/>
<path d="M1650 1262 c-32 -32 -37 -60 -18 -95 17 -32 39 -46 73 -46 46 0 85
40 85 88 0 30 -40 70 -77 77 -27 5 -37 1 -63 -24z"/>
<path d="M2646 1239 c-32 -25 -36 -85 -8 -118 26 -33 81 -38 115 -11 22 18 27
29 27 65 0 35 -5 48 -26 64 -15 12 -39 21 -54 21 -15 0 -39 -9 -54 -21z"/>
<path d="M957 1136 c-82 -44 -102 -131 -46 -198 92 -113 267 -28 229 112 -21
77 -117 122 -183 86z"/>
<path d="M2132 937 c-22 -23 -29 -68 -16 -102 4 -8 20 -23 36 -31 24 -12 36
-13 64 -4 40 13 54 35 54 83 0 69 -90 105 -138 54z"/>
</g>
</svg>
